<mxfile host="Electron" agent="Mozilla/5.0 (Macintosh; Intel Mac OS X 10_15_7) AppleWebKit/537.36 (KHTML, like Gecko) draw.io/28.2.5 Chrome/138.0.7204.251 Electron/37.6.1 Safari/537.36" version="28.2.5">
  <diagram name="SMDH Option B - Snowflake-Centric Architecture" id="snowflake-architecture">
    <mxGraphModel dx="1502" dy="1226" grid="1" gridSize="10" guides="1" tooltips="1" connect="1" arrows="1" fold="1" page="1" pageScale="1" pageWidth="1169" pageHeight="827" math="0" shadow="0">
      <root>
        <mxCell id="0" />
        <mxCell id="1" parent="0" />
        <mxCell id="title" value="SMDH Option B: Snowflake-Centric Architecture" style="text;html=1;strokeColor=none;fillColor=none;align=center;verticalAlign=middle;whiteSpace=wrap;rounded=0;fontSize=24;fontStyle=1" parent="1" vertex="1">
          <mxGeometry x="304" y="20" width="560" height="40" as="geometry" />
        </mxCell>
        <mxCell id="sources-layer" value="Data Sources Layer" style="swimlane;whiteSpace=wrap;html=1;fillColor=#dae8fc;strokeColor=#6c8ebf;fontSize=14;fontStyle=1" parent="1" vertex="1">
          <mxGeometry x="40" y="80" width="200" height="600" as="geometry" />
        </mxCell>
        <mxCell id="machine-sensors" value="Machine Sensors&#xa;(LoRaWAN/MQTT)&#xa;1 Hz, 30-45 sensors" style="rounded=1;whiteSpace=wrap;html=1;fillColor=#fff2cc;strokeColor=#d6b656;" parent="sources-layer" vertex="1">
          <mxGeometry x="20" y="40" width="160" height="60" as="geometry" />
        </mxCell>
        <mxCell id="energy-sensors" value="Energy Monitors&#xa;(Modbus/MQTT)&#xa;15s intervals" style="rounded=1;whiteSpace=wrap;html=1;fillColor=#fff2cc;strokeColor=#d6b656;" parent="sources-layer" vertex="1">
          <mxGeometry x="20" y="120" width="160" height="60" as="geometry" />
        </mxCell>
        <mxCell id="air-quality" value="Air Quality Sensors&#xa;(MQTT/LoRaWAN)&#xa;1 min, 10-15 sensors" style="rounded=1;whiteSpace=wrap;html=1;fillColor=#fff2cc;strokeColor=#d6b656;" parent="sources-layer" vertex="1">
          <mxGeometry x="20" y="200" width="160" height="60" as="geometry" />
        </mxCell>
        <mxCell id="rfid-scanners" value="RFID/Barcode&#xa;(REST API/MQTT)&#xa;Event-driven" style="rounded=1;whiteSpace=wrap;html=1;fillColor=#fff2cc;strokeColor=#d6b656;" parent="sources-layer" vertex="1">
          <mxGeometry x="20" y="280" width="160" height="60" as="geometry" />
        </mxCell>
        <mxCell id="file-uploads" value="File Uploads&#xa;(CSV/XLSX/JSON)&#xa;Batch weekly" style="rounded=1;whiteSpace=wrap;html=1;fillColor=#fff2cc;strokeColor=#d6b656;" parent="sources-layer" vertex="1">
          <mxGeometry x="20" y="360" width="160" height="60" as="geometry" />
        </mxCell>
        <mxCell id="legacy-systems" value="Legacy Systems&#xa;(Various formats)&#xa;Monthly" style="rounded=1;whiteSpace=wrap;html=1;fillColor=#fff2cc;strokeColor=#d6b656;" parent="sources-layer" vertex="1">
          <mxGeometry x="20" y="440" width="160" height="60" as="geometry" />
        </mxCell>
        <mxCell id="aws-layer" value="AWS Infrastructure (Minimal)" style="swimlane;whiteSpace=wrap;html=1;fillColor=#ffe6cc;strokeColor=#d79b00;fontSize=14;fontStyle=1" parent="1" vertex="1">
          <mxGeometry x="280" y="80" width="200" height="600" as="geometry" />
        </mxCell>
        <mxCell id="iot-core" value="AWS IoT Core&#xa;MQTT Broker&#xa;Device Registry" style="rounded=1;whiteSpace=wrap;html=1;fillColor=#f8cecc;strokeColor=#b85450;" parent="aws-layer" vertex="1">
          <mxGeometry x="20" y="40" width="160" height="70" as="geometry" />
        </mxCell>
        <mxCell id="kinesis-minimal" value="Kinesis Streams&#xa;(Minimal buffering)" style="rounded=1;whiteSpace=wrap;html=1;fillColor=#f8cecc;strokeColor=#b85450;" parent="aws-layer" vertex="1">
          <mxGeometry x="20" y="130" width="160" height="50" as="geometry" />
        </mxCell>
        <mxCell id="api-gateway" value="API Gateway&#xa;REST/WebSocket&#xa;Proxy to Snowflake" style="rounded=1;whiteSpace=wrap;html=1;fillColor=#f8cecc;strokeColor=#b85450;" parent="aws-layer" vertex="1">
          <mxGeometry x="20" y="200" width="160" height="70" as="geometry" />
        </mxCell>
        <mxCell id="cognito" value="AWS Cognito&#xa;Authentication&#xa;SSO + MFA" style="rounded=1;whiteSpace=wrap;html=1;fillColor=#f8cecc;strokeColor=#b85450;" parent="aws-layer" vertex="1">
          <mxGeometry x="20" y="290" width="160" height="60" as="geometry" />
        </mxCell>
        <mxCell id="eventbridge-minimal" value="EventBridge&#xa;(Alerts only)" style="rounded=1;whiteSpace=wrap;html=1;fillColor=#f8cecc;strokeColor=#b85450;" parent="aws-layer" vertex="1">
          <mxGeometry x="20" y="370" width="160" height="50" as="geometry" />
        </mxCell>
        <mxCell id="s3-minimal" value="S3 (Minimal)&#xa;Archive only&#xa;External stages" style="rounded=1;whiteSpace=wrap;html=1;fillColor=#f8cecc;strokeColor=#b85450;" parent="aws-layer" vertex="1">
          <mxGeometry x="20" y="440" width="160" height="60" as="geometry" />
        </mxCell>
        <mxCell id="vpc-privatelink" value="VPC + PrivateLink&#xa;Network Security" style="rounded=1;whiteSpace=wrap;html=1;fillColor=#f8cecc;strokeColor=#b85450;" parent="aws-layer" vertex="1">
          <mxGeometry x="20" y="520" width="160" height="50" as="geometry" />
        </mxCell>
        <mxCell id="snowflake-layer" value="Snowflake Core Platform" style="swimlane;whiteSpace=wrap;html=1;fillColor=#d5e8d4;strokeColor=#82b366;fontSize=14;fontStyle=1" parent="1" vertex="1">
          <mxGeometry x="520" y="80" width="280" height="600" as="geometry" />
        </mxCell>
        <mxCell id="snowpipe-streaming" value="Snowpipe Streaming&#xa;&lt;10 second latency&#xa;Exactly-once ingestion" style="rounded=1;whiteSpace=wrap;html=1;fillColor=#b1ddf0;strokeColor=#10739e;fontStyle=1" parent="snowflake-layer" vertex="1">
          <mxGeometry x="20" y="40" width="240" height="60" as="geometry" />
        </mxCell>
        <mxCell id="raw-tables" value="Raw Tables&#xa;VARIANT columns&#xa;Schema evolution" style="rounded=1;whiteSpace=wrap;html=1;fillColor=#b1ddf0;strokeColor=#10739e;" parent="snowflake-layer" vertex="1">
          <mxGeometry x="20" y="120" width="240" height="50" as="geometry" />
        </mxCell>
        <mxCell id="streams" value="Snowflake Streams&#xa;Change Data Capture&#xa;Incremental processing" style="rounded=1;whiteSpace=wrap;html=1;fillColor=#b1ddf0;strokeColor=#10739e;fontStyle=1" parent="snowflake-layer" vertex="1">
          <mxGeometry x="20" y="190" width="240" height="60" as="geometry" />
        </mxCell>
        <mxCell id="tasks" value="Snowflake Tasks&#xa;ETL Orchestration (DAG)&#xa;SQL/Python/Java" style="rounded=1;whiteSpace=wrap;html=1;fillColor=#b1ddf0;strokeColor=#10739e;fontStyle=1" parent="snowflake-layer" vertex="1">
          <mxGeometry x="20" y="270" width="240" height="60" as="geometry" />
        </mxCell>
        <mxCell id="dynamic-tables" value="Dynamic Tables&#xa;Real-time aggregations&#xa;Auto-refresh" style="rounded=1;whiteSpace=wrap;html=1;fillColor=#b1ddf0;strokeColor=#10739e;fontStyle=1" parent="snowflake-layer" vertex="1">
          <mxGeometry x="20" y="350" width="240" height="60" as="geometry" />
        </mxCell>
        <mxCell id="cortex-ml" value="Snowflake Cortex ML&#xa;Anomaly detection&#xa;Forecasting" style="rounded=1;whiteSpace=wrap;html=1;fillColor=#b1ddf0;strokeColor=#10739e;fontStyle=1" parent="snowflake-layer" vertex="1">
          <mxGeometry x="20" y="430" width="240" height="60" as="geometry" />
        </mxCell>
        <mxCell id="stored-procedures" value="Stored Procedures&#xa;Data validation&#xa;Business logic" style="rounded=1;whiteSpace=wrap;html=1;fillColor=#b1ddf0;strokeColor=#10739e;" parent="snowflake-layer" vertex="1">
          <mxGeometry x="20" y="510" width="240" height="60" as="geometry" />
        </mxCell>
        <mxCell id="analytics-layer" value="Analytics &amp; Applications" style="swimlane;whiteSpace=wrap;html=1;fillColor=#e1d5e7;strokeColor=#9673a6;fontSize=14;fontStyle=1" parent="1" vertex="1">
          <mxGeometry x="840" y="80" width="280" height="600" as="geometry" />
        </mxCell>
        <mxCell id="quicksight" value="QuickSight&#xa;Embedded Analytics&#xa;Multi-tenant RLS" style="rounded=1;whiteSpace=wrap;html=1;fillColor=#e6d0de;strokeColor=#996185;" parent="analytics-layer" vertex="1">
          <mxGeometry x="20" y="40" width="240" height="60" as="geometry" />
        </mxCell>
        <mxCell id="powerbi" value="PowerBI Embedded&#xa;DirectQuery&#xa;Workspace isolation" style="rounded=1;whiteSpace=wrap;html=1;fillColor=#e6d0de;strokeColor=#996185;" parent="analytics-layer" vertex="1">
          <mxGeometry x="20" y="120" width="240" height="60" as="geometry" />
        </mxCell>
        <mxCell id="grafana" value="Grafana&#xa;Real-time monitoring&#xa;Operational KPIs" style="rounded=1;whiteSpace=wrap;html=1;fillColor=#e6d0de;strokeColor=#996185;" parent="analytics-layer" vertex="1">
          <mxGeometry x="20" y="200" width="240" height="60" as="geometry" />
        </mxCell>
        <mxCell id="web-portal" value="React Web Portal&#xa;Dashboard hub&#xa;Self-service" style="rounded=1;whiteSpace=wrap;html=1;fillColor=#e6d0de;strokeColor=#996185;fontStyle=1" parent="analytics-layer" vertex="1">
          <mxGeometry x="20" y="280" width="240" height="60" as="geometry" />
        </mxCell>
        <mxCell id="custom-viz" value="Custom D3.js&#xa;Manufacturing viz&#xa;Floor plans" style="rounded=1;whiteSpace=wrap;html=1;fillColor=#e6d0de;strokeColor=#996185;" parent="analytics-layer" vertex="1">
          <mxGeometry x="20" y="360" width="240" height="60" as="geometry" />
        </mxCell>
        <mxCell id="snowsight" value="Snowsight&#xa;Ad-hoc analysis&#xa;SQL worksheets" style="rounded=1;whiteSpace=wrap;html=1;fillColor=#e6d0de;strokeColor=#996185;" parent="analytics-layer" vertex="1">
          <mxGeometry x="20" y="440" width="240" height="60" as="geometry" />
        </mxCell>
        <mxCell id="mobile-apps" value="Mobile Apps&#xa;Dashboards&#xa;Alerts" style="rounded=1;whiteSpace=wrap;html=1;fillColor=#e6d0de;strokeColor=#996185;" parent="analytics-layer" vertex="1">
          <mxGeometry x="20" y="520" width="240" height="60" as="geometry" />
        </mxCell>
        <mxCell id="arrow1" style="edgeStyle=orthogonalEdgeStyle;rounded=0;orthogonalLoop=1;jettySize=auto;html=1;strokeWidth=2;strokeColor=#00796B;entryX=0;entryY=0.25;entryDx=0;entryDy=0;exitX=1;exitY=0.5;exitDx=0;exitDy=0;" parent="1" source="machine-sensors" target="iot-core" edge="1">
          <mxGeometry relative="1" as="geometry">
            <Array as="points">
              <mxPoint x="250" y="150" />
              <mxPoint x="250" y="138" />
            </Array>
          </mxGeometry>
        </mxCell>
        <mxCell id="arrow2" style="edgeStyle=orthogonalEdgeStyle;rounded=0;orthogonalLoop=1;jettySize=auto;html=1;strokeWidth=2;strokeColor=#00796B;entryX=0;entryY=0.5;entryDx=0;entryDy=0;" parent="1" source="energy-sensors" target="iot-core" edge="1">
          <mxGeometry relative="1" as="geometry" />
        </mxCell>
        <mxCell id="arrow3" style="edgeStyle=orthogonalEdgeStyle;rounded=0;orthogonalLoop=1;jettySize=auto;html=1;strokeWidth=2;strokeColor=#00796B;entryX=0;entryY=0.75;entryDx=0;entryDy=0;" parent="1" source="air-quality" target="iot-core" edge="1">
          <mxGeometry relative="1" as="geometry">
            <Array as="points">
              <mxPoint x="270" y="310" />
              <mxPoint x="270" y="172" />
            </Array>
          </mxGeometry>
        </mxCell>
        <mxCell id="arrow4" style="edgeStyle=orthogonalEdgeStyle;rounded=0;orthogonalLoop=1;jettySize=auto;html=1;strokeWidth=2;strokeColor=#1565C0;entryX=-0.017;entryY=0.406;entryDx=0;entryDy=0;entryPerimeter=0;" parent="1" source="rfid-scanners" target="api-gateway" edge="1">
          <mxGeometry relative="1" as="geometry">
            <Array as="points">
              <mxPoint x="280" y="390" />
              <mxPoint x="280" y="308" />
            </Array>
          </mxGeometry>
        </mxCell>
        <mxCell id="arrow5" style="edgeStyle=orthogonalEdgeStyle;rounded=0;orthogonalLoop=1;jettySize=auto;html=1;strokeWidth=2;strokeColor=#1565C0;entryX=0;entryY=0.75;entryDx=0;entryDy=0;" parent="1" source="file-uploads" target="api-gateway" edge="1">
          <mxGeometry relative="1" as="geometry">
            <Array as="points">
              <mxPoint x="290" y="470" />
              <mxPoint x="290" y="332" />
            </Array>
          </mxGeometry>
        </mxCell>
        <mxCell id="arrow6" style="edgeStyle=orthogonalEdgeStyle;rounded=0;orthogonalLoop=1;jettySize=auto;html=1;strokeWidth=2;strokeColor=#00796B;" parent="1" source="iot-core" target="kinesis-minimal" edge="1">
          <mxGeometry relative="1" as="geometry" />
        </mxCell>
        <mxCell id="arrow7" style="edgeStyle=orthogonalEdgeStyle;rounded=0;orthogonalLoop=1;jettySize=auto;html=1;strokeWidth=3;strokeColor=#0D47A1;entryX=0;entryY=0.5;entryDx=0;entryDy=0;" parent="1" source="kinesis-minimal" target="snowpipe-streaming" edge="1">
          <mxGeometry relative="1" as="geometry">
            <Array as="points">
              <mxPoint x="500" y="235" />
              <mxPoint x="500" y="150" />
            </Array>
          </mxGeometry>
        </mxCell>
        <mxCell id="arrow9" style="edgeStyle=orthogonalEdgeStyle;rounded=0;orthogonalLoop=1;jettySize=auto;html=1;strokeWidth=2;strokeColor=#0D47A1;" parent="1" source="snowpipe-streaming" target="raw-tables" edge="1">
          <mxGeometry relative="1" as="geometry" />
        </mxCell>
        <mxCell id="arrow10" style="edgeStyle=orthogonalEdgeStyle;rounded=0;orthogonalLoop=1;jettySize=auto;html=1;strokeWidth=2;strokeColor=#0D47A1;" parent="1" source="raw-tables" target="streams" edge="1">
          <mxGeometry relative="1" as="geometry" />
        </mxCell>
        <mxCell id="arrow11" style="edgeStyle=orthogonalEdgeStyle;rounded=0;orthogonalLoop=1;jettySize=auto;html=1;strokeWidth=2;strokeColor=#0D47A1;" parent="1" source="streams" target="tasks" edge="1">
          <mxGeometry relative="1" as="geometry" />
        </mxCell>
        <mxCell id="arrow12" style="edgeStyle=orthogonalEdgeStyle;rounded=0;orthogonalLoop=1;jettySize=auto;html=1;strokeWidth=2;strokeColor=#0D47A1;" parent="1" source="tasks" target="dynamic-tables" edge="1">
          <mxGeometry relative="1" as="geometry" />
        </mxCell>
        <mxCell id="arrow13" style="edgeStyle=orthogonalEdgeStyle;rounded=0;orthogonalLoop=1;jettySize=auto;html=1;strokeWidth=2;strokeColor=#0D47A1;" parent="1" source="dynamic-tables" target="cortex-ml" edge="1">
          <mxGeometry relative="1" as="geometry" />
        </mxCell>
        <mxCell id="arrow14" style="edgeStyle=orthogonalEdgeStyle;rounded=0;orthogonalLoop=1;jettySize=auto;html=1;strokeWidth=2;strokeColor=#6A1B9A;" parent="1" source="dynamic-tables" target="quicksight" edge="1">
          <mxGeometry relative="1" as="geometry">
            <Array as="points">
              <mxPoint x="830" y="460" />
              <mxPoint x="830" y="150" />
            </Array>
          </mxGeometry>
        </mxCell>
        <mxCell id="arrow15" style="edgeStyle=orthogonalEdgeStyle;rounded=0;orthogonalLoop=1;jettySize=auto;html=1;strokeWidth=2;strokeColor=#6A1B9A;entryX=0;entryY=0.5;entryDx=0;entryDy=0;" parent="1" source="dynamic-tables" target="powerbi" edge="1">
          <mxGeometry relative="1" as="geometry">
            <Array as="points">
              <mxPoint x="820" y="460" />
              <mxPoint x="820" y="230" />
            </Array>
          </mxGeometry>
        </mxCell>
        <mxCell id="arrow16" style="edgeStyle=orthogonalEdgeStyle;rounded=0;orthogonalLoop=1;jettySize=auto;html=1;strokeWidth=2;strokeColor=#6A1B9A;entryX=0;entryY=0.25;entryDx=0;entryDy=0;" parent="1" source="dynamic-tables" target="grafana" edge="1">
          <mxGeometry relative="1" as="geometry">
            <Array as="points">
              <mxPoint x="810" y="460" />
              <mxPoint x="810" y="295" />
            </Array>
          </mxGeometry>
        </mxCell>
        <mxCell id="arrow17" style="edgeStyle=orthogonalEdgeStyle;rounded=0;orthogonalLoop=1;jettySize=auto;html=1;strokeWidth=2;strokeColor=#6A1B9A;" parent="1" source="cortex-ml" target="web-portal" edge="1">
          <mxGeometry relative="1" as="geometry">
            <Array as="points">
              <mxPoint x="840" y="540" />
              <mxPoint x="840" y="390" />
            </Array>
          </mxGeometry>
        </mxCell>
        <mxCell id="legend" value="Legend" style="swimlane;whiteSpace=wrap;html=1;fillColor=#f5f5f5;strokeColor=#666666;fontSize=12;fontStyle=1" parent="1" vertex="1">
          <mxGeometry x="40" y="700" width="400" height="100" as="geometry" />
        </mxCell>
        <mxCell id="legend-streaming" value="Real-time Streaming (Sensors)" style="text;html=1;strokeColor=#00796B;fillColor=none;align=left;verticalAlign=middle;whiteSpace=wrap;rounded=0;strokeWidth=2;" parent="legend" vertex="1">
          <mxGeometry x="10" y="30" width="180" height="20" as="geometry" />
        </mxCell>
        <mxCell id="legend-batch" value="Batch/Event-driven (API)" style="text;html=1;strokeColor=#1565C0;fillColor=none;align=left;verticalAlign=middle;whiteSpace=wrap;rounded=0;strokeWidth=2;" parent="legend" vertex="1">
          <mxGeometry x="10" y="50" width="180" height="20" as="geometry" />
        </mxCell>
        <mxCell id="legend-snowflake" value="Snowflake Internal Processing" style="text;html=1;strokeColor=#0D47A1;fillColor=none;align=left;verticalAlign=middle;whiteSpace=wrap;rounded=0;strokeWidth=3;" parent="legend" vertex="1">
          <mxGeometry x="200" y="30" width="190" height="20" as="geometry" />
        </mxCell>
        <mxCell id="legend-analytics" value="Analytics/Visualization" style="text;html=1;strokeColor=#6A1B9A;fillColor=none;align=left;verticalAlign=middle;whiteSpace=wrap;rounded=0;strokeWidth=2;" parent="legend" vertex="1">
          <mxGeometry x="200" y="50" width="190" height="20" as="geometry" />
        </mxCell>
        <mxCell id="benefits" value="Key Benefits of Option B" style="swimlane;whiteSpace=wrap;html=1;fillColor=#d5e8d4;strokeColor=#82b366;fontSize=12;fontStyle=1" parent="1" vertex="1">
          <mxGeometry x="480" y="700" width="640" height="100" as="geometry" />
        </mxCell>
        <mxCell id="benefit1" value="✓ Simplified operations (5 core services vs 15+)" style="text;html=1;strokeColor=none;fillColor=none;align=left;verticalAlign=middle;whiteSpace=wrap;rounded=0;" parent="benefits" vertex="1">
          <mxGeometry x="10" y="30" width="300" height="20" as="geometry" />
        </mxCell>
        <mxCell id="benefit2" value="✓ 15-20% cost savings with unified platform" style="text;html=1;strokeColor=none;fillColor=none;align=left;verticalAlign=middle;whiteSpace=wrap;rounded=0;" parent="benefits" vertex="1">
          <mxGeometry x="10" y="50" width="300" height="20" as="geometry" />
        </mxCell>
        <mxCell id="benefit3" value="✓ Faster development (SQL-first vs multi-language)" style="text;html=1;strokeColor=none;fillColor=none;align=left;verticalAlign=middle;whiteSpace=wrap;rounded=0;" parent="benefits" vertex="1">
          <mxGeometry x="10" y="70" width="300" height="20" as="geometry" />
        </mxCell>
        <mxCell id="benefit4" value="✓ Built-in ML capabilities (Cortex ML functions)" style="text;html=1;strokeColor=none;fillColor=none;align=left;verticalAlign=middle;whiteSpace=wrap;rounded=0;" parent="benefits" vertex="1">
          <mxGeometry x="320" y="30" width="300" height="20" as="geometry" />
        </mxCell>
        <mxCell id="benefit5" value="✓ Unified governance and data lineage" style="text;html=1;strokeColor=none;fillColor=none;align=left;verticalAlign=middle;whiteSpace=wrap;rounded=0;" parent="benefits" vertex="1">
          <mxGeometry x="320" y="50" width="300" height="20" as="geometry" />
        </mxCell>
        <mxCell id="benefit6" value="✓ 4 weeks faster time to production (20 vs 24 weeks)" style="text;html=1;strokeColor=none;fillColor=none;align=left;verticalAlign=middle;whiteSpace=wrap;rounded=0;" parent="benefits" vertex="1">
          <mxGeometry x="320" y="70" width="300" height="20" as="geometry" />
        </mxCell>
        <mxCell id="arrow8" style="edgeStyle=orthogonalEdgeStyle;rounded=0;orthogonalLoop=1;jettySize=auto;html=1;strokeWidth=3;strokeColor=#0D47A1;entryX=0;entryY=0.75;entryDx=0;entryDy=0;" parent="1" source="api-gateway" target="snowpipe-streaming" edge="1">
          <mxGeometry relative="1" as="geometry">
            <mxPoint x="440" y="315" as="sourcePoint" />
            <mxPoint x="600" y="180" as="targetPoint" />
            <Array as="points">
              <mxPoint x="510" y="315" />
              <mxPoint x="510" y="165" />
            </Array>
          </mxGeometry>
        </mxCell>
      </root>
    </mxGraphModel>
  </diagram>
</mxfile>
